<svg width="467" height="216" viewBox="0 0 467 216" fill="none" xmlns="http://www.w3.org/2000/svg">
<path d="M60.0671 11.4159L15.4077 11.329L15.7606 204.879L60.4198 204.966" stroke="#9B51E0" stroke-width="18"/>
<path d="M95.625 154.266V156H68.3906V154.266H70.6406C73.2656 154.266 75.1719 153.5 76.3594 151.969C77.1094 150.969 77.4844 148.562 77.4844 144.75V103.688C77.4844 100.469 77.2812 98.3438 76.875 97.3125C76.5625 96.5312 75.9219 95.8594 74.9531 95.2969C73.5781 94.5469 72.1406 94.1719 70.6406 94.1719H68.3906V92.4375H95.625V94.1719H93.3281C90.7344 94.1719 88.8438 94.9375 87.6562 96.4688C86.875 97.4688 86.4844 99.875 86.4844 103.688V144.75C86.4844 147.969 86.6875 150.094 87.0938 151.125C87.4062 151.906 88.0625 152.578 89.0625 153.141C90.4062 153.891 91.8281 154.266 93.3281 154.266H95.625ZM96.7031 92.4375H113.953L152.812 140.109V103.453C152.812 99.5469 152.375 97.1094 151.5 96.1406C150.344 94.8281 148.516 94.1719 146.016 94.1719H143.812V92.4375H165.938V94.1719H163.688C161 94.1719 159.094 94.9844 157.969 96.6094C157.281 97.6094 156.938 99.8906 156.938 103.453V157.031H155.25L113.344 105.844V144.984C113.344 148.891 113.766 151.328 114.609 152.297C115.797 153.609 117.625 154.266 120.094 154.266H122.344V156H100.219V154.266H102.422C105.141 154.266 107.062 153.453 108.188 151.828C108.875 150.828 109.219 148.547 109.219 144.984V100.781C107.375 98.625 105.969 97.2031 105 96.5156C104.062 95.8281 102.672 95.1875 100.828 94.5938C99.9219 94.3125 98.5469 94.1719 96.7031 94.1719V92.4375ZM209.625 156.703C212.812 162.203 216.25 166.25 219.938 168.844C223.656 171.438 227.875 172.922 232.594 173.297V174.797C228.281 174.641 223.672 173.766 218.766 172.172C213.859 170.609 209.203 168.422 204.797 165.609C200.422 162.828 196.641 159.859 193.453 156.703C188.953 154.891 185.391 152.969 182.766 150.938C178.953 147.906 175.984 144.188 173.859 139.781C171.766 135.344 170.719 130.109 170.719 124.078C170.719 114.578 173.797 106.688 179.953 100.406C186.109 94.125 193.562 90.9844 202.312 90.9844C210.625 90.9844 217.812 94.1406 223.875 100.453C229.969 106.734 233.016 114.672 233.016 124.266C233.016 132.047 230.844 138.875 226.5 144.75C222.188 150.625 216.562 154.609 209.625 156.703ZM201.75 94.5938C196.062 94.5938 191.484 96.625 188.016 100.688C183.641 105.781 181.453 113.578 181.453 124.078C181.453 134.359 183.672 142.281 188.109 147.844C191.547 152.125 196.094 154.266 201.75 154.266C207.625 154.266 212.359 152.125 215.953 147.844C220.172 142.781 222.281 135.312 222.281 125.438C222.281 117.844 221.125 111.453 218.812 106.266C217.031 102.266 214.656 99.3281 211.688 97.4531C208.75 95.5469 205.438 94.5938 201.75 94.5938ZM282.516 94.1719V92.4375H305.016V94.1719H302.625C300.125 94.1719 298.203 95.2188 296.859 97.3125C296.203 98.2812 295.875 100.531 295.875 104.062V129.844C295.875 136.219 295.234 141.172 293.953 144.703C292.703 148.203 290.219 151.219 286.5 153.75C282.812 156.25 277.781 157.5 271.406 157.5C264.469 157.5 259.203 156.297 255.609 153.891C252.016 151.484 249.469 148.25 247.969 144.188C246.969 141.406 246.469 136.188 246.469 128.531V103.688C246.469 99.7812 245.922 97.2188 244.828 96C243.766 94.7812 242.031 94.1719 239.625 94.1719H237.234V92.4375H264.703V94.1719H262.266C259.641 94.1719 257.766 95 256.641 96.6562C255.859 97.7812 255.469 100.125 255.469 103.688V131.391C255.469 133.859 255.688 136.688 256.125 139.875C256.594 143.062 257.422 145.547 258.609 147.328C259.797 149.109 261.5 150.578 263.719 151.734C265.969 152.891 268.719 153.469 271.969 153.469C276.125 153.469 279.844 152.562 283.125 150.75C286.406 148.938 288.641 146.625 289.828 143.812C291.047 140.969 291.656 136.172 291.656 129.422V103.688C291.656 99.7188 291.219 97.2344 290.344 96.2344C289.125 94.8594 287.312 94.1719 284.906 94.1719H282.516ZM335.719 154.266V156H308.484V154.266H310.734C313.359 154.266 315.266 153.5 316.453 151.969C317.203 150.969 317.578 148.562 317.578 144.75V103.688C317.578 100.469 317.375 98.3438 316.969 97.3125C316.656 96.5312 316.016 95.8594 315.047 95.2969C313.672 94.5469 312.234 94.1719 310.734 94.1719H308.484V92.4375H335.719V94.1719H333.422C330.828 94.1719 328.938 94.9375 327.75 96.4688C326.969 97.4688 326.578 99.875 326.578 103.688V144.75C326.578 147.969 326.781 150.094 327.188 151.125C327.5 151.906 328.156 152.578 329.156 153.141C330.5 153.891 331.922 154.266 333.422 154.266H335.719ZM402.938 156H385.969L364.453 126.281C362.859 126.344 361.562 126.375 360.562 126.375C360.156 126.375 359.719 126.375 359.25 126.375C358.781 126.344 358.297 126.312 357.797 126.281V144.75C357.797 148.75 358.234 151.234 359.109 152.203C360.297 153.578 362.078 154.266 364.453 154.266H366.938V156H339.703V154.266H342.094C344.781 154.266 346.703 153.391 347.859 151.641C348.516 150.672 348.844 148.375 348.844 144.75V103.688C348.844 99.6875 348.406 97.2031 347.531 96.2344C346.312 94.8594 344.5 94.1719 342.094 94.1719H339.703V92.4375H362.859C369.609 92.4375 374.578 92.9375 377.766 93.9375C380.984 94.9062 383.703 96.7188 385.922 99.375C388.172 102 389.297 105.141 389.297 108.797C389.297 112.703 388.016 116.094 385.453 118.969C382.922 121.844 378.984 123.875 373.641 125.062L386.766 143.297C389.766 147.484 392.344 150.266 394.5 151.641C396.656 153.016 399.469 153.891 402.938 154.266V156ZM357.797 123.328C358.391 123.328 358.906 123.344 359.344 123.375C359.781 123.375 360.141 123.375 360.422 123.375C366.484 123.375 371.047 122.062 374.109 119.438C377.203 116.812 378.75 113.469 378.75 109.406C378.75 105.438 377.5 102.219 375 99.75C372.531 97.25 369.25 96 365.156 96C363.344 96 360.891 96.2969 357.797 96.8906V123.328ZM442.5 92.4375H464.672V94.1719H463.453C462.641 94.1719 461.453 94.5312 459.891 95.25C458.328 95.9688 456.906 97 455.625 98.3438C454.344 99.6875 452.766 101.875 450.891 104.906L435.562 129.047V144.984C435.562 148.891 436 151.328 436.875 152.297C438.062 153.609 439.938 154.266 442.5 154.266H444.562V156H417.562V154.266H419.812C422.5 154.266 424.406 153.453 425.531 151.828C426.219 150.828 426.562 148.547 426.562 144.984V129.938L409.125 103.312C407.062 100.188 405.656 98.2344 404.906 97.4531C404.188 96.6719 402.672 95.7344 400.359 94.6406C399.734 94.3281 398.828 94.1719 397.641 94.1719V92.4375H424.828V94.1719H423.422C421.953 94.1719 420.594 94.5156 419.344 95.2031C418.125 95.8906 417.516 96.9219 417.516 98.2969C417.516 99.4219 418.469 101.453 420.375 104.391L433.641 124.875L446.109 105.281C447.984 102.344 448.922 100.156 448.922 98.7188C448.922 97.8438 448.688 97.0625 448.219 96.375C447.781 95.6875 447.141 95.1562 446.297 94.7812C445.453 94.375 444.188 94.1719 442.5 94.1719V92.4375Z" fill="white"/>
<path d="M84 43.872V47.94H73.524V54.384H81.552V58.38H73.524V69H68.484V43.872H84ZM102.982 64.212H92.9738L91.3178 69H86.0258L95.0618 43.836H100.93L109.966 69H104.638L102.982 64.212ZM101.614 60.18L97.9778 49.668L94.3418 60.18H101.614ZM122.019 69.252C120.267 69.252 118.683 68.952 117.267 68.352C115.875 67.752 114.771 66.888 113.955 65.76C113.139 64.632 112.719 63.3 112.695 61.764H118.095C118.167 62.796 118.527 63.612 119.175 64.212C119.847 64.812 120.759 65.112 121.911 65.112C123.087 65.112 124.011 64.836 124.683 64.284C125.355 63.708 125.691 62.964 125.691 62.052C125.691 61.308 125.463 60.696 125.007 60.216C124.551 59.736 123.975 59.364 123.279 59.1C122.607 58.812 121.671 58.5 120.471 58.164C118.839 57.684 117.507 57.216 116.475 56.76C115.467 56.28 114.591 55.572 113.847 54.636C113.127 53.676 112.767 52.404 112.767 50.82C112.767 49.332 113.139 48.036 113.883 46.932C114.627 45.828 115.671 44.988 117.015 44.412C118.359 43.812 119.895 43.512 121.623 43.512C124.215 43.512 126.315 44.148 127.923 45.42C129.555 46.668 130.455 48.42 130.623 50.676H125.079C125.031 49.812 124.659 49.104 123.963 48.552C123.291 47.976 122.391 47.688 121.263 47.688C120.279 47.688 119.487 47.94 118.887 48.444C118.311 48.948 118.023 49.68 118.023 50.64C118.023 51.312 118.239 51.876 118.671 52.332C119.127 52.764 119.679 53.124 120.327 53.412C120.999 53.676 121.935 53.988 123.135 54.348C124.767 54.828 126.099 55.308 127.131 55.788C128.163 56.268 129.051 56.988 129.795 57.948C130.539 58.908 130.911 60.168 130.911 61.728C130.911 63.072 130.563 64.32 129.867 65.472C129.171 66.624 128.151 67.548 126.807 68.244C125.463 68.916 123.867 69.252 122.019 69.252ZM152.381 43.872V47.94H145.685V69H140.645V47.94H133.949V43.872H152.381ZM183.968 69L181.232 66.3C178.904 68.388 176.06 69.432 172.7 69.432C170.852 69.432 169.22 69.12 167.804 68.496C166.412 67.848 165.332 66.948 164.564 65.796C163.796 64.62 163.412 63.264 163.412 61.728C163.412 60.072 163.88 58.584 164.816 57.264C165.752 55.944 167.132 54.876 168.956 54.06C168.308 53.268 167.84 52.512 167.552 51.792C167.264 51.048 167.12 50.256 167.12 49.416C167.12 48.264 167.42 47.232 168.02 46.32C168.62 45.384 169.472 44.652 170.576 44.124C171.704 43.596 173.012 43.332 174.5 43.332C176.012 43.332 177.308 43.62 178.388 44.196C179.468 44.772 180.272 45.54 180.8 46.5C181.328 47.46 181.556 48.528 181.484 49.704H176.588C176.612 48.912 176.42 48.312 176.012 47.904C175.604 47.472 175.052 47.256 174.356 47.256C173.684 47.256 173.12 47.46 172.664 47.868C172.232 48.252 172.016 48.756 172.016 49.38C172.016 49.98 172.196 50.58 172.556 51.18C172.916 51.756 173.504 52.476 174.32 53.34L180.656 59.604C180.704 59.556 180.74 59.508 180.764 59.46C180.788 59.412 180.812 59.364 180.836 59.316L182.888 55.896H188.144L185.624 60.324C185.144 61.26 184.628 62.148 184.076 62.988L190.16 69H183.968ZM172.844 65.256C174.812 65.256 176.552 64.56 178.064 63.168L171.872 57.048C169.544 58.08 168.38 59.544 168.38 61.44C168.38 62.52 168.788 63.432 169.604 64.176C170.42 64.896 171.5 65.256 172.844 65.256ZM214.194 69L208.65 59.208H206.274V69H201.234V43.872H210.666C212.61 43.872 214.266 44.22 215.634 44.916C217.002 45.588 218.022 46.512 218.694 47.688C219.39 48.84 219.738 50.136 219.738 51.576C219.738 53.232 219.258 54.732 218.298 56.076C217.338 57.396 215.91 58.308 214.014 58.812L220.026 69H214.194ZM206.274 55.428H210.486C211.854 55.428 212.874 55.104 213.546 54.456C214.218 53.784 214.554 52.86 214.554 51.684C214.554 50.532 214.218 49.644 213.546 49.02C212.874 48.372 211.854 48.048 210.486 48.048H206.274V55.428ZM229.337 47.94V54.24H237.797V58.236H229.337V64.896H238.877V69H224.297V43.836H238.877V47.94H229.337ZM248.497 65.004H256.777V69H243.457V43.872H248.497V65.004ZM265.02 43.872V69H259.98V43.872H265.02ZM285.408 64.212H275.4L273.744 69H268.452L277.488 43.836H283.356L292.392 69H287.064L285.408 64.212ZM284.04 60.18L280.404 49.668L276.768 60.18H284.04ZM310.025 56.112C311.441 56.376 312.605 57.084 313.517 58.236C314.429 59.388 314.885 60.708 314.885 62.196C314.885 63.54 314.549 64.728 313.877 65.76C313.229 66.768 312.281 67.56 311.033 68.136C309.785 68.712 308.309 69 306.605 69H295.769V43.872H306.137C307.841 43.872 309.305 44.148 310.529 44.7C311.777 45.252 312.713 46.02 313.337 47.004C313.985 47.988 314.309 49.104 314.309 50.352C314.309 51.816 313.913 53.04 313.121 54.024C312.353 55.008 311.321 55.704 310.025 56.112ZM300.809 54.24H305.417C306.617 54.24 307.541 53.976 308.189 53.448C308.837 52.896 309.161 52.116 309.161 51.108C309.161 50.1 308.837 49.32 308.189 48.768C307.541 48.216 306.617 47.94 305.417 47.94H300.809V54.24ZM305.885 64.896C307.109 64.896 308.057 64.608 308.729 64.032C309.425 63.456 309.773 62.64 309.773 61.584C309.773 60.504 309.413 59.664 308.693 59.064C307.973 58.44 307.001 58.128 305.777 58.128H300.809V64.896H305.885ZM323.942 65.004H332.222V69H318.902V43.872H323.942V65.004ZM340.465 47.94V54.24H348.925V58.236H340.465V64.896H350.005V69H335.425V43.836H350.005V47.94H340.465Z" fill="white"/>
</svg>
