<svg width="144" height="119" viewBox="0 0 144 119" fill="none" xmlns="http://www.w3.org/2000/svg">
<circle cx="2.5" cy="2.5" r="2.5" fill="white" fill-opacity="0.38"/>
<circle cx="2.5" cy="13.5" r="2.5" fill="white" fill-opacity="0.38"/>
<circle cx="2.5" cy="24.5" r="2.5" fill="white" fill-opacity="0.38"/>
<circle cx="2.5" cy="35.5" r="2.5" fill="white" fill-opacity="0.38"/>
<circle cx="2.5" cy="49.5" r="2.5" fill="white" fill-opacity="0.38"/>
<circle cx="2.5" cy="60.5" r="2.5" fill="white" fill-opacity="0.38"/>
<circle cx="4.5" cy="74.5" r="2.5" fill="white" fill-opacity="0.38"/>
<circle cx="5.5" cy="88.5" r="2.5" fill="white" fill-opacity="0.38"/>
<circle cx="4.5" cy="102.5" r="2.5" fill="white" fill-opacity="0.38"/>
<circle cx="4.5" cy="116.5" r="2.5" fill="white" fill-opacity="0.38"/>
<circle cx="36.5" cy="2.5" r="2.5" fill="white" fill-opacity="0.38"/>
<circle cx="36.5" cy="13.5" r="2.5" fill="white" fill-opacity="0.38"/>
<circle cx="36.5" cy="24.5" r="2.5" fill="white" fill-opacity="0.38"/>
<circle cx="36.5" cy="35.5" r="2.5" fill="white" fill-opacity="0.38"/>
<circle cx="36.5" cy="49.5" r="2.5" fill="white" fill-opacity="0.38"/>
<circle cx="36.5" cy="60.5" r="2.5" fill="white" fill-opacity="0.38"/>
<circle cx="38.5" cy="74.5" r="2.5" fill="white" fill-opacity="0.38"/>
<circle cx="39.5" cy="88.5" r="2.5" fill="white" fill-opacity="0.38"/>
<circle cx="38.5" cy="102.5" r="2.5" fill="white" fill-opacity="0.38"/>
<circle cx="38.5" cy="116.5" r="2.5" fill="white" fill-opacity="0.38"/>
<circle cx="138.5" cy="2.5" r="2.5" fill="white" fill-opacity="0.38"/>
<circle cx="138.5" cy="13.5" r="2.5" fill="white" fill-opacity="0.38"/>
<circle cx="138.5" cy="24.5" r="2.5" fill="white" fill-opacity="0.38"/>
<circle cx="138.5" cy="35.5" r="2.5" fill="white" fill-opacity="0.38"/>
<circle cx="138.5" cy="49.5" r="2.5" fill="white" fill-opacity="0.38"/>
<circle cx="138.5" cy="60.5" r="2.5" fill="white" fill-opacity="0.38"/>
<circle cx="140.5" cy="74.5" r="2.5" fill="white" fill-opacity="0.38"/>
<circle cx="141.5" cy="88.5" r="2.5" fill="white" fill-opacity="0.38"/>
<circle cx="140.5" cy="102.5" r="2.5" fill="white" fill-opacity="0.38"/>
<circle cx="140.5" cy="116.5" r="2.5" fill="white" fill-opacity="0.38"/>
<circle cx="87.5" cy="2.5" r="2.5" fill="white" fill-opacity="0.38"/>
<circle cx="87.5" cy="13.5" r="2.5" fill="white" fill-opacity="0.38"/>
<circle cx="87.5" cy="24.5" r="2.5" fill="white" fill-opacity="0.38"/>
<circle cx="87.5" cy="35.5" r="2.5" fill="white" fill-opacity="0.38"/>
<circle cx="87.5" cy="49.5" r="2.5" fill="white" fill-opacity="0.38"/>
<circle cx="87.5" cy="60.5" r="2.5" fill="white" fill-opacity="0.38"/>
<circle cx="89.5" cy="74.5" r="2.5" fill="white" fill-opacity="0.38"/>
<circle cx="90.5" cy="88.5" r="2.5" fill="white" fill-opacity="0.38"/>
<circle cx="89.5" cy="102.5" r="2.5" fill="white" fill-opacity="0.38"/>
<circle cx="89.5" cy="116.5" r="2.5" fill="white" fill-opacity="0.38"/>
<circle cx="70.5" cy="2.5" r="2.5" fill="white" fill-opacity="0.38"/>
<circle cx="70.5" cy="13.5" r="2.5" fill="white" fill-opacity="0.38"/>
<circle cx="70.5" cy="24.5" r="2.5" fill="white" fill-opacity="0.38"/>
<circle cx="70.5" cy="35.5" r="2.5" fill="white" fill-opacity="0.38"/>
<circle cx="70.5" cy="49.5" r="2.5" fill="white" fill-opacity="0.38"/>
<circle cx="70.5" cy="60.5" r="2.5" fill="white" fill-opacity="0.38"/>
<circle cx="72.5" cy="74.5" r="2.5" fill="white" fill-opacity="0.38"/>
<circle cx="73.5" cy="88.5" r="2.5" fill="white" fill-opacity="0.38"/>
<circle cx="72.5" cy="102.5" r="2.5" fill="white" fill-opacity="0.38"/>
<circle cx="72.5" cy="116.5" r="2.5" fill="white" fill-opacity="0.38"/>
<circle cx="19.5" cy="2.5" r="2.5" fill="white" fill-opacity="0.38"/>
<circle cx="19.5" cy="13.5" r="2.5" fill="white" fill-opacity="0.38"/>
<circle cx="19.5" cy="24.5" r="2.5" fill="white" fill-opacity="0.38"/>
<circle cx="19.5" cy="35.5" r="2.5" fill="white" fill-opacity="0.38"/>
<circle cx="19.5" cy="49.5" r="2.5" fill="white" fill-opacity="0.38"/>
<circle cx="19.5" cy="60.5" r="2.5" fill="white" fill-opacity="0.38"/>
<circle cx="21.5" cy="74.5" r="2.5" fill="white" fill-opacity="0.38"/>
<circle cx="22.5" cy="88.5" r="2.5" fill="white" fill-opacity="0.38"/>
<circle cx="21.5" cy="102.5" r="2.5" fill="white" fill-opacity="0.38"/>
<circle cx="21.5" cy="116.5" r="2.5" fill="white" fill-opacity="0.38"/>
<circle cx="53.5" cy="2.5" r="2.5" fill="white" fill-opacity="0.38"/>
<circle cx="53.5" cy="13.5" r="2.5" fill="white" fill-opacity="0.38"/>
<circle cx="53.5" cy="24.5" r="2.5" fill="white" fill-opacity="0.38"/>
<circle cx="53.5" cy="35.5" r="2.5" fill="white" fill-opacity="0.38"/>
<circle cx="53.5" cy="49.5" r="2.5" fill="white" fill-opacity="0.38"/>
<circle cx="53.5" cy="60.5" r="2.5" fill="white" fill-opacity="0.38"/>
<circle cx="55.5" cy="74.5" r="2.5" fill="white" fill-opacity="0.38"/>
<circle cx="56.5" cy="88.5" r="2.5" fill="white" fill-opacity="0.38"/>
<circle cx="55.5" cy="102.5" r="2.5" fill="white" fill-opacity="0.38"/>
<circle cx="55.5" cy="116.5" r="2.5" fill="white" fill-opacity="0.38"/>
<circle cx="121.5" cy="2.5" r="2.5" fill="white" fill-opacity="0.38"/>
<circle cx="121.5" cy="13.5" r="2.5" fill="white" fill-opacity="0.38"/>
<circle cx="121.5" cy="24.5" r="2.5" fill="white" fill-opacity="0.38"/>
<circle cx="121.5" cy="35.5" r="2.5" fill="white" fill-opacity="0.38"/>
<circle cx="121.5" cy="49.5" r="2.5" fill="white" fill-opacity="0.38"/>
<circle cx="121.5" cy="60.5" r="2.5" fill="white" fill-opacity="0.38"/>
<circle cx="123.5" cy="74.5" r="2.5" fill="white" fill-opacity="0.38"/>
<circle cx="124.5" cy="88.5" r="2.5" fill="white" fill-opacity="0.38"/>
<circle cx="123.5" cy="102.5" r="2.5" fill="white" fill-opacity="0.38"/>
<circle cx="123.5" cy="116.5" r="2.5" fill="white" fill-opacity="0.38"/>
<circle cx="104.5" cy="2.5" r="2.5" fill="white" fill-opacity="0.38"/>
<circle cx="104.5" cy="13.5" r="2.5" fill="white" fill-opacity="0.38"/>
<circle cx="104.5" cy="24.5" r="2.5" fill="white" fill-opacity="0.38"/>
<circle cx="104.5" cy="35.5" r="2.5" fill="white" fill-opacity="0.38"/>
<circle cx="104.5" cy="49.5" r="2.5" fill="white" fill-opacity="0.38"/>
<circle cx="104.5" cy="60.5" r="2.5" fill="white" fill-opacity="0.38"/>
<circle cx="106.5" cy="74.5" r="2.5" fill="white" fill-opacity="0.38"/>
<circle cx="107.5" cy="88.5" r="2.5" fill="white" fill-opacity="0.38"/>
<circle cx="106.5" cy="102.5" r="2.5" fill="white" fill-opacity="0.38"/>
<circle cx="106.5" cy="116.5" r="2.5" fill="white" fill-opacity="0.38"/>
</svg>
