<svg width="76" height="76" viewBox="0 0 76 76" fill="none" xmlns="http://www.w3.org/2000/svg">
<path fill-rule="evenodd" clip-rule="evenodd" d="M56.596 38.4318C56.596 37.0846 56.4751 35.7891 56.2505 34.5455H38.356V41.895H48.5814C48.141 44.27 46.8023 46.2823 44.7901 47.6296V52.3969H50.9305C54.5233 49.0891 56.596 44.2182 56.596 38.4318Z" fill="#4285F4"/>
<path fill-rule="evenodd" clip-rule="evenodd" d="M38.3553 57C43.4854 57 47.7863 55.2986 50.9299 52.3968L44.7895 47.6295C43.0881 48.7695 40.9117 49.4431 38.3553 49.4431C33.4067 49.4431 29.2181 46.1008 27.724 41.6099H21.3762V46.5327C24.5026 52.7422 30.9281 57 38.3553 57Z" fill="#34A853"/>
<path fill-rule="evenodd" clip-rule="evenodd" d="M27.7246 41.6099C27.3446 40.4699 27.1287 39.2522 27.1287 37.9999C27.1287 36.7476 27.3446 35.5299 27.7246 34.3899V29.4672H21.3769C20.09 32.0322 19.356 34.934 19.356 37.9999C19.356 41.0658 20.09 43.9676 21.3769 46.5327L27.7246 41.6099Z" fill="#FBBC05"/>
<path fill-rule="evenodd" clip-rule="evenodd" d="M38.3553 26.5568C41.1449 26.5568 43.6494 27.5155 45.6185 29.3982L51.0681 23.9486C47.7776 20.8827 43.4767 19 38.3553 19C30.9281 19 24.5026 23.2577 21.3762 29.4673L27.724 34.39C29.2181 29.8991 33.4067 26.5568 38.3553 26.5568Z" fill="#EA4335"/>
</svg>
