<svg width="192" height="54" viewBox="0 0 192 54" fill="none" xmlns="http://www.w3.org/2000/svg">
<path d="M11.7 14.728C14.364 14.728 16.692 15.256 18.684 16.312C20.676 17.368 22.212 18.856 23.292 20.776C24.396 22.672 24.948 24.868 24.948 27.364C24.948 29.836 24.396 32.032 23.292 33.952C22.212 35.872 20.664 37.36 18.648 38.416C16.656 39.472 14.34 40 11.7 40H2.232V14.728H11.7ZM11.304 34.672C13.632 34.672 15.444 34.036 16.74 32.764C18.036 31.492 18.684 29.692 18.684 27.364C18.684 25.036 18.036 23.224 16.74 21.928C15.444 20.632 13.632 19.984 11.304 19.984H8.388V34.672H11.304ZM57.0083 14.728V40H50.8523V24.844L45.2003 40H40.2323L34.5443 24.808V40H28.3883V14.728H35.6602L42.7523 32.224L49.7723 14.728H57.0083ZM78.2111 22.72C77.7551 21.88 77.0951 21.244 76.2311 20.812C75.3911 20.356 74.3951 20.128 73.2431 20.128C71.2511 20.128 69.6551 20.788 68.4551 22.108C67.2551 23.404 66.6551 25.144 66.6551 27.328C66.6551 29.656 67.2791 31.48 68.5271 32.8C69.7991 34.096 71.5391 34.744 73.7471 34.744C75.2591 34.744 76.5311 34.36 77.5631 33.592C78.6191 32.824 79.3871 31.72 79.8671 30.28H72.0551V25.744H85.4471V31.468C84.9911 33.004 84.2111 34.432 83.1071 35.752C82.0271 37.072 80.6471 38.14 78.9671 38.956C77.2871 39.772 75.3911 40.18 73.2791 40.18C70.7831 40.18 68.5511 39.64 66.5831 38.56C64.6391 37.456 63.1151 35.932 62.0111 33.988C60.9311 32.044 60.3911 29.824 60.3911 27.328C60.3911 24.832 60.9311 22.612 62.0111 20.668C63.1151 18.7 64.6391 17.176 66.5831 16.096C68.5271 14.992 70.7471 14.44 73.2431 14.44C76.2671 14.44 78.8111 15.172 80.8751 16.636C82.9631 18.1 84.3431 20.128 85.0151 22.72H78.2111ZM98.001 40.252C96.153 40.252 94.497 39.952 93.033 39.352C91.569 38.752 90.393 37.864 89.505 36.688C88.641 35.512 88.185 34.096 88.137 32.44H94.689C94.785 33.376 95.109 34.096 95.661 34.6C96.213 35.08 96.933 35.32 97.821 35.32C98.733 35.32 99.453 35.116 99.981 34.708C100.509 34.276 100.773 33.688 100.773 32.944C100.773 32.32 100.557 31.804 100.125 31.396C99.717 30.988 99.201 30.652 98.577 30.388C97.977 30.124 97.113 29.824 95.985 29.488C94.353 28.984 93.021 28.48 91.989 27.976C90.957 27.472 90.069 26.728 89.325 25.744C88.581 24.76 88.209 23.476 88.209 21.892C88.209 19.54 89.061 17.704 90.765 16.384C92.469 15.04 94.689 14.368 97.425 14.368C100.209 14.368 102.453 15.04 104.157 16.384C105.861 17.704 106.773 19.552 106.893 21.928H100.233C100.185 21.112 99.885 20.476 99.333 20.02C98.781 19.54 98.073 19.3 97.209 19.3C96.465 19.3 95.865 19.504 95.409 19.912C94.953 20.296 94.725 20.86 94.725 21.604C94.725 22.42 95.109 23.056 95.877 23.512C96.645 23.968 97.845 24.46 99.477 24.988C101.109 25.54 102.429 26.068 103.437 26.572C104.469 27.076 105.357 27.808 106.101 28.768C106.845 29.728 107.217 30.964 107.217 32.476C107.217 33.916 106.845 35.224 106.101 36.4C105.381 37.576 104.325 38.512 102.933 39.208C101.541 39.904 99.897 40.252 98.001 40.252ZM117.161 35.248H125.225V40H111.005V14.728H117.161V35.248Z" fill="#9B51E0"/>
<line x1="131" y1="38.5" x2="191.068" y2="38.5" stroke="#41458E" stroke-width="3"/>
</svg>
