<svg width="431" height="342" viewBox="0 0 431 342" fill="none" xmlns="http://www.w3.org/2000/svg">
<path d="M85.8739 342C133.301 342 171.748 338.67 171.748 334.562C171.748 330.454 133.301 327.123 85.8739 327.123C38.4471 327.123 0 330.454 0 334.562C0 338.67 38.4471 342 85.8739 342Z" fill="#E6E6E6"/>
<path d="M65.6404 75.8838C80.585 68.6343 99.1988 73.2275 117.377 76.4154C117.546 72.5549 119.597 67.8564 117.449 65.1631C114.839 61.8909 115.08 58.4528 116.65 54.9949C120.665 46.1525 114.912 36.7437 109.104 28.9204C107.795 27.1611 106.14 25.7787 104.274 24.8856C102.409 23.9926 100.385 23.614 98.3666 23.7806L87.6065 24.6572C84.9882 24.8705 82.4894 25.9907 80.4445 27.8679C78.3997 29.7451 76.9063 32.2898 76.1641 35.1615C73.5949 39.1468 72.2197 43.121 73.0855 47.0745C69.2371 50.0739 68.5906 53.6945 70.3199 57.7761C71.7863 60.346 71.7706 62.8476 70.2532 65.2799C68.2603 68.381 66.7339 71.8388 65.7366 75.5115L65.6404 75.8838Z" fill="#2F2E41"/>
<path d="M420.787 295.654H116.197C113.488 295.654 110.89 294.426 108.975 292.242C107.06 290.057 105.984 287.095 105.984 284.006C216.398 269.37 324.736 269.37 431 284.006C431 287.095 429.924 290.057 428.009 292.242C426.093 294.426 423.496 295.654 420.787 295.654Z" fill="#2F2E41"/>
<path d="M431 284.691L105.984 284.006L143.652 211.719L143.832 211.377V52.0665C143.832 50.1329 144.166 48.2181 144.815 46.4315C145.463 44.645 146.414 43.0218 147.613 41.6544C148.812 40.2871 150.235 39.2025 151.802 38.4626C153.368 37.7227 155.047 37.3419 156.743 37.3421H378.439C380.134 37.3419 381.813 37.7227 383.379 38.4626C384.946 39.2025 386.369 40.2871 387.568 41.6544C388.767 43.0218 389.718 44.645 390.367 46.4315C391.016 48.2181 391.349 50.1329 391.349 52.0665V212.473L431 284.691Z" fill="#3F3D56"/>
<path d="M156.448 47.6198C155.333 47.6212 154.264 48.127 153.476 49.0261C152.687 49.9253 152.244 51.1444 152.243 52.416V197.673C152.244 198.945 152.687 200.164 153.476 201.063C154.264 201.962 155.333 202.468 156.448 202.47H380.535C381.65 202.468 382.719 201.962 383.507 201.063C384.296 200.164 384.739 198.945 384.741 197.673V52.416C384.739 51.1444 384.296 49.9253 383.507 49.0262C382.719 48.127 381.65 47.6212 380.535 47.6198H156.448Z" fill="white"/>
<path d="M157.387 221.654C157.043 221.655 156.706 221.768 156.415 221.98C156.125 222.192 155.894 222.494 155.75 222.851L144.143 251.628C144.017 251.941 143.961 252.286 143.982 252.63C144.003 252.974 144.1 253.306 144.263 253.596C144.426 253.887 144.65 254.125 144.915 254.291C145.181 254.456 145.478 254.543 145.78 254.543H389.864C390.171 254.543 390.474 254.453 390.742 254.283C391.01 254.112 391.236 253.866 391.397 253.568C391.559 253.27 391.651 252.93 391.665 252.58C391.678 252.23 391.613 251.881 391.476 251.568L378.86 222.791C378.711 222.449 378.481 222.161 378.196 221.96C377.911 221.759 377.583 221.653 377.248 221.654H157.387Z" fill="#2F2E41"/>
<path d="M267.591 45.2216C269.084 45.2216 270.294 43.8412 270.294 42.1383C270.294 40.4355 269.084 39.0551 267.591 39.0551C266.098 39.0551 264.887 40.4355 264.887 42.1383C264.887 43.8412 266.098 45.2216 267.591 45.2216Z" fill="white"/>
<path d="M243.599 260.024C243.203 260.025 242.818 260.174 242.503 260.449C242.189 260.724 241.963 261.109 241.859 261.545L238.948 273.878C238.876 274.183 238.866 274.503 238.92 274.812C238.973 275.122 239.089 275.413 239.257 275.663C239.425 275.914 239.642 276.117 239.89 276.256C240.138 276.396 240.411 276.469 240.688 276.469H296.057C296.344 276.469 296.627 276.39 296.883 276.24C297.138 276.09 297.358 275.872 297.525 275.605C297.691 275.338 297.8 275.03 297.84 274.705C297.881 274.381 297.853 274.05 297.759 273.741L294.016 261.407C293.894 261.004 293.664 260.653 293.358 260.406C293.053 260.158 292.688 260.024 292.313 260.024H243.599Z" fill="#2F2E41"/>
<path d="M391.349 208.979V211.719H143.652L143.838 211.377V208.979H391.349Z" fill="#2F2E41"/>
<path d="M384.44 95.9247C407.666 95.9247 426.494 74.4512 426.494 47.9623C426.494 21.4735 407.666 0 384.44 0C361.215 0 342.386 21.4735 342.386 47.9623C342.386 74.4512 361.215 95.9247 384.44 95.9247Z" fill="#87ABCA"/>
<path d="M401.863 68.8602H367.018C366.381 68.8595 365.77 68.5705 365.32 68.0567C364.869 67.5429 364.616 66.8462 364.615 66.1195V42.1383C364.616 41.4117 364.869 40.715 365.32 40.2012C365.77 39.6874 366.381 39.3984 367.018 39.3976H401.863C402.5 39.3984 403.111 39.6874 403.561 40.2012C404.012 40.715 404.265 41.4117 404.266 42.1383V66.1195C404.265 66.8462 404.012 67.5429 403.561 68.0567C403.111 68.5705 402.5 68.8595 401.863 68.8602ZM367.018 42.1384V66.1195H401.864L401.863 42.1383L367.018 42.1384Z" fill="white"/>
<path d="M395.254 42.1383H373.626V31.1755C373.626 23.235 378.174 17.4719 384.44 17.4719C390.706 17.4719 395.254 23.235 395.254 31.1755L395.254 42.1383ZM376.03 39.3976H392.851V31.1755C392.851 24.7208 389.393 20.2126 384.44 20.2126C379.488 20.2126 376.03 24.7208 376.03 31.1755L376.03 39.3976Z" fill="white"/>
<path d="M384.44 56.1845C385.768 56.1845 386.843 54.9574 386.843 53.4438C386.843 51.9301 385.768 50.7031 384.44 50.7031C383.113 50.7031 382.037 51.9301 382.037 53.4438C382.037 54.9574 383.113 56.1845 384.44 56.1845Z" fill="white"/>
<path d="M355.083 153.2H181.901C181.05 153.199 180.235 152.813 179.634 152.127C179.033 151.441 178.695 150.512 178.694 149.542V100.547C178.695 99.5775 179.033 98.6478 179.634 97.9621C180.235 97.2764 181.05 96.8907 181.901 96.8895H355.083C355.933 96.8907 356.749 97.2764 357.35 97.9621C357.951 98.6478 358.289 99.5775 358.29 100.547V149.542C358.289 150.512 357.951 151.441 357.35 152.127C356.749 152.813 355.933 153.199 355.083 153.2ZM181.901 98.3526C181.39 98.3532 180.901 98.5847 180.541 98.9961C180.18 99.4075 179.977 99.9654 179.976 100.547V149.542C179.977 150.124 180.18 150.682 180.541 151.093C180.901 151.505 181.39 151.736 181.901 151.737H355.083C355.593 151.736 356.082 151.505 356.443 151.093C356.804 150.682 357.007 150.124 357.007 149.542V100.547C357.007 99.9653 356.804 99.4075 356.443 98.9961C356.082 98.5846 355.593 98.3532 355.083 98.3526L181.901 98.3526Z" fill="#E6E6E6"/>
<path d="M208.81 138.064C216.025 138.064 221.874 131.393 221.874 123.165C221.874 114.936 216.025 108.265 208.81 108.265C201.595 108.265 195.746 114.936 195.746 123.165C195.746 131.393 201.595 138.064 208.81 138.064Z" fill="#E6E6E6"/>
<path d="M238.981 113.232C238.695 113.231 238.412 113.295 238.147 113.42C237.882 113.544 237.642 113.727 237.439 113.958C237.237 114.188 237.076 114.462 236.967 114.764C236.857 115.065 236.801 115.389 236.801 115.715C236.801 116.041 236.857 116.365 236.967 116.666C237.076 116.968 237.237 117.242 237.439 117.472C237.642 117.703 237.882 117.886 238.147 118.01C238.412 118.135 238.695 118.199 238.981 118.198H341.626C342.204 118.198 342.758 117.937 343.166 117.471C343.574 117.005 343.804 116.374 343.804 115.715C343.804 115.056 343.574 114.425 343.166 113.959C342.758 113.493 342.204 113.232 341.626 113.232H238.981Z" fill="#E6E6E6"/>
<path d="M238.981 128.131C238.404 128.131 237.85 128.393 237.441 128.858C237.033 129.324 236.804 129.956 236.804 130.614C236.804 131.273 237.033 131.905 237.441 132.37C237.85 132.836 238.404 133.098 238.981 133.098H283.15C283.727 133.098 284.281 132.836 284.689 132.37C285.097 131.905 285.327 131.273 285.327 130.614C285.327 129.956 285.097 129.324 284.689 128.858C284.281 128.393 283.727 128.131 283.15 128.131H238.981Z" fill="#E6E6E6"/>
<path d="M143.226 129.136L111.212 148.547L110.806 132.371C121.256 130.382 131.197 126.918 140.389 121.279L143.737 111.844C144.102 110.816 144.695 109.914 145.458 109.226C146.221 108.539 147.128 108.089 148.089 107.922C149.05 107.754 150.033 107.875 150.941 108.271C151.849 108.668 152.651 109.327 153.268 110.184C154.172 111.438 154.623 113.037 154.531 114.656C154.44 116.275 153.812 117.794 152.775 118.905L143.226 129.136Z" fill="#FFB8B8"/>
<path d="M65.0023 241.211C64.7688 240.234 64.7192 239.211 64.8568 238.211C64.9944 237.211 65.3162 236.255 65.8009 235.407L72.8335 223.097C74.4968 220.186 77.0491 218.083 79.9952 217.197C82.9413 216.31 86.071 216.703 88.7772 218.3C85.8216 224.038 86.2336 229.071 89.798 233.446C84.2648 236.526 79.1508 240.503 74.6145 245.251C73.7864 245.895 72.8353 246.304 71.8406 246.444C70.8459 246.583 69.8362 246.45 68.8958 246.055C67.9554 245.66 67.1114 245.014 66.4341 244.171C65.7569 243.328 65.266 242.313 65.0023 241.211Z" fill="#2F2E41"/>
<path d="M144.684 225.116C143.62 227.139 142.118 228.816 140.321 229.986C138.525 231.156 136.496 231.78 134.427 231.798L87.7076 232.201L85.6814 218.798L106.349 211.865L88.9233 196.614L107.97 171.194L142.564 207.967C144.586 210.116 145.899 212.992 146.285 216.114C146.671 219.235 146.106 222.413 144.684 225.116Z" fill="#2F2E41"/>
<path d="M80.4129 316.78H69.4714C59.6475 239.98 49.6477 162.965 79.1972 134.22L114.048 140.69L109.59 174.429L90.1388 199.849L80.4129 316.78Z" fill="#2F2E41"/>
<path d="M90.0312 334.177C89.1747 334.444 88.2784 334.5 87.4013 334.343C86.5242 334.187 85.6862 333.82 84.9423 333.267L73.062 331.446C70.5092 329.549 68.6652 326.638 67.8878 323.278C67.1103 319.918 67.455 316.349 68.8548 313.262C73.8859 316.633 78.2993 316.163 82.1345 312.097C84.8444 318.338 89.3093 317.957 93.5735 323.214C94.1381 324.159 94.4966 325.244 94.6193 326.378C94.7419 327.513 94.6251 328.664 94.2785 329.737C93.932 330.809 93.3657 331.772 92.6269 332.544C91.8881 333.317 90.9982 333.877 90.0312 334.177Z" fill="#2F2E41"/>
<path d="M106.349 82.9179L86.0867 77.3718C89.4519 69.5157 89.729 60.7741 88.1129 51.4898L101.891 51.0276C102.323 62.5729 103.629 73.3591 106.349 82.9179Z" fill="#FFB8B8"/>
<path d="M111.917 154.606C97.1672 166.069 86.7452 154.998 78.7921 137.917C79.8972 127.465 78.1078 114.957 74.7936 101.366C73.3197 95.3712 73.87 88.9642 76.3358 83.4098C78.8016 77.8553 83.0038 73.557 88.1126 71.3635L105.538 79.6827C120.334 93.4378 123.247 108.337 117.695 124.052L111.917 154.606Z" fill="#445768"/>
<path d="M69.4717 94.4723L53.262 104.178L82.0342 123.59L86.0376 134.852C86.3048 135.604 86.435 136.41 86.4202 137.221C86.4054 138.032 86.2459 138.831 85.9515 139.569C85.6571 140.308 85.2339 140.97 84.7078 141.516C84.1816 142.061 83.5635 142.479 82.8911 142.744C82.1268 143.044 81.3119 143.139 80.5101 143.02C79.7084 142.902 78.9416 142.573 78.2698 142.06C77.598 141.547 77.0394 140.864 76.6379 140.063C76.2363 139.263 76.0026 138.368 75.9552 137.447L75.5503 129.598L38.9812 115.835C37.7491 115.371 36.6257 114.593 35.696 113.561C34.7663 112.529 34.0548 111.269 33.6153 109.877C32.9747 107.847 32.9421 105.633 33.5226 103.58C34.1031 101.527 35.2639 99.7518 36.8234 98.5316L66.2297 75.5231L69.4717 94.4723Z" fill="#FFB8B8"/>
<path d="M85.6814 96.3211C78.921 92.9421 72.7735 96.6127 65.0141 99.5563L63.7983 75.0609C71.5031 70.3774 78.8491 69.1146 85.6814 72.75L85.6814 96.3211Z" fill="#3C576F"/>
<path d="M93.7684 63.1611C100.913 63.1611 106.705 56.5554 106.705 48.407C106.705 40.2585 100.913 33.6528 93.7684 33.6528C86.6237 33.6528 80.8318 40.2585 80.8318 48.407C80.8318 56.5554 86.6237 63.1611 93.7684 63.1611Z" fill="#FFB8B8"/>
<path d="M109.245 46.5454C96.4362 47.9761 86.6763 45.587 80.4387 38.7846V33.3064H108.158L109.245 46.5454Z" fill="#2F2E41"/>
</svg>
