<svg width="582" height="758" viewBox="0 0 582 758" fill="none" xmlns="http://www.w3.org/2000/svg">
<rect width="581.5" height="758" fill="#337AB7"/>
<circle cx="434.5" cy="9.5" r="2.5" fill="white" fill-opacity="0.38"/>
<circle cx="434.5" cy="20.5" r="2.5" fill="white" fill-opacity="0.38"/>
<circle cx="434.5" cy="31.5" r="2.5" fill="white" fill-opacity="0.38"/>
<circle cx="434.5" cy="42.5" r="2.5" fill="white" fill-opacity="0.38"/>
<circle cx="434.5" cy="56.5" r="2.5" fill="white" fill-opacity="0.38"/>
<circle cx="434.5" cy="67.5" r="2.5" fill="white" fill-opacity="0.38"/>
<circle cx="436.5" cy="81.5" r="2.5" fill="white" fill-opacity="0.38"/>
<circle cx="437.5" cy="95.5" r="2.5" fill="white" fill-opacity="0.38"/>
<circle cx="436.5" cy="109.5" r="2.5" fill="white" fill-opacity="0.38"/>
<circle cx="436.5" cy="123.5" r="2.5" fill="white" fill-opacity="0.38"/>
<circle cx="468.5" cy="9.5" r="2.5" fill="white" fill-opacity="0.38"/>
<circle cx="468.5" cy="20.5" r="2.5" fill="white" fill-opacity="0.38"/>
<circle cx="468.5" cy="31.5" r="2.5" fill="white" fill-opacity="0.38"/>
<circle cx="468.5" cy="42.5" r="2.5" fill="white" fill-opacity="0.38"/>
<circle cx="468.5" cy="56.5" r="2.5" fill="white" fill-opacity="0.38"/>
<circle cx="468.5" cy="67.5" r="2.5" fill="white" fill-opacity="0.38"/>
<circle cx="470.5" cy="81.5" r="2.5" fill="white" fill-opacity="0.38"/>
<circle cx="471.5" cy="95.5" r="2.5" fill="white" fill-opacity="0.38"/>
<circle cx="470.5" cy="109.5" r="2.5" fill="white" fill-opacity="0.38"/>
<circle cx="470.5" cy="123.5" r="2.5" fill="white" fill-opacity="0.38"/>
<circle cx="570.5" cy="9.5" r="2.5" fill="white" fill-opacity="0.38"/>
<circle cx="570.5" cy="20.5" r="2.5" fill="white" fill-opacity="0.38"/>
<circle cx="570.5" cy="31.5" r="2.5" fill="white" fill-opacity="0.38"/>
<circle cx="570.5" cy="42.5" r="2.5" fill="white" fill-opacity="0.38"/>
<circle cx="570.5" cy="56.5" r="2.5" fill="white" fill-opacity="0.38"/>
<circle cx="570.5" cy="67.5" r="2.5" fill="white" fill-opacity="0.38"/>
<circle cx="572.5" cy="81.5" r="2.5" fill="white" fill-opacity="0.38"/>
<circle cx="573.5" cy="95.5" r="2.5" fill="white" fill-opacity="0.38"/>
<circle cx="572.5" cy="109.5" r="2.5" fill="white" fill-opacity="0.38"/>
<circle cx="572.5" cy="123.5" r="2.5" fill="white" fill-opacity="0.38"/>
<circle cx="519.5" cy="9.5" r="2.5" fill="white" fill-opacity="0.38"/>
<circle cx="519.5" cy="20.5" r="2.5" fill="white" fill-opacity="0.38"/>
<circle cx="519.5" cy="31.5" r="2.5" fill="white" fill-opacity="0.38"/>
<circle cx="519.5" cy="42.5" r="2.5" fill="white" fill-opacity="0.38"/>
<circle cx="519.5" cy="56.5" r="2.5" fill="white" fill-opacity="0.38"/>
<circle cx="519.5" cy="67.5" r="2.5" fill="white" fill-opacity="0.38"/>
<circle cx="521.5" cy="81.5" r="2.5" fill="white" fill-opacity="0.38"/>
<circle cx="522.5" cy="95.5" r="2.5" fill="white" fill-opacity="0.38"/>
<circle cx="521.5" cy="109.5" r="2.5" fill="white" fill-opacity="0.38"/>
<circle cx="521.5" cy="123.5" r="2.5" fill="white" fill-opacity="0.38"/>
<circle cx="502.5" cy="9.5" r="2.5" fill="white" fill-opacity="0.38"/>
<circle cx="502.5" cy="20.5" r="2.5" fill="white" fill-opacity="0.38"/>
<circle cx="502.5" cy="31.5" r="2.5" fill="white" fill-opacity="0.38"/>
<circle cx="502.5" cy="42.5" r="2.5" fill="white" fill-opacity="0.38"/>
<circle cx="502.5" cy="56.5" r="2.5" fill="white" fill-opacity="0.38"/>
<circle cx="502.5" cy="67.5" r="2.5" fill="white" fill-opacity="0.38"/>
<circle cx="504.5" cy="81.5" r="2.5" fill="white" fill-opacity="0.38"/>
<circle cx="505.5" cy="95.5" r="2.5" fill="white" fill-opacity="0.38"/>
<circle cx="504.5" cy="109.5" r="2.5" fill="white" fill-opacity="0.38"/>
<circle cx="504.5" cy="123.5" r="2.5" fill="white" fill-opacity="0.38"/>
<circle cx="451.5" cy="9.5" r="2.5" fill="white" fill-opacity="0.38"/>
<circle cx="451.5" cy="20.5" r="2.5" fill="white" fill-opacity="0.38"/>
<circle cx="451.5" cy="31.5" r="2.5" fill="white" fill-opacity="0.38"/>
<circle cx="451.5" cy="42.5" r="2.5" fill="white" fill-opacity="0.38"/>
<circle cx="451.5" cy="56.5" r="2.5" fill="white" fill-opacity="0.38"/>
<circle cx="451.5" cy="67.5" r="2.5" fill="white" fill-opacity="0.38"/>
<circle cx="453.5" cy="81.5" r="2.5" fill="white" fill-opacity="0.38"/>
<circle cx="454.5" cy="95.5" r="2.5" fill="white" fill-opacity="0.38"/>
<circle cx="453.5" cy="109.5" r="2.5" fill="white" fill-opacity="0.38"/>
<circle cx="453.5" cy="123.5" r="2.5" fill="white" fill-opacity="0.38"/>
<circle cx="485.5" cy="9.5" r="2.5" fill="white" fill-opacity="0.38"/>
<circle cx="485.5" cy="20.5" r="2.5" fill="white" fill-opacity="0.38"/>
<circle cx="485.5" cy="31.5" r="2.5" fill="white" fill-opacity="0.38"/>
<circle cx="485.5" cy="42.5" r="2.5" fill="white" fill-opacity="0.38"/>
<circle cx="485.5" cy="56.5" r="2.5" fill="white" fill-opacity="0.38"/>
<circle cx="485.5" cy="67.5" r="2.5" fill="white" fill-opacity="0.38"/>
<circle cx="487.5" cy="81.5" r="2.5" fill="white" fill-opacity="0.38"/>
<circle cx="488.5" cy="95.5" r="2.5" fill="white" fill-opacity="0.38"/>
<circle cx="487.5" cy="109.5" r="2.5" fill="white" fill-opacity="0.38"/>
<circle cx="487.5" cy="123.5" r="2.5" fill="white" fill-opacity="0.38"/>
<circle cx="553.5" cy="9.5" r="2.5" fill="white" fill-opacity="0.38"/>
<circle cx="553.5" cy="20.5" r="2.5" fill="white" fill-opacity="0.38"/>
<circle cx="553.5" cy="31.5" r="2.5" fill="white" fill-opacity="0.38"/>
<circle cx="553.5" cy="42.5" r="2.5" fill="white" fill-opacity="0.38"/>
<circle cx="553.5" cy="56.5" r="2.5" fill="white" fill-opacity="0.38"/>
<circle cx="553.5" cy="67.5" r="2.5" fill="white" fill-opacity="0.38"/>
<circle cx="555.5" cy="81.5" r="2.5" fill="white" fill-opacity="0.38"/>
<circle cx="556.5" cy="95.5" r="2.5" fill="white" fill-opacity="0.38"/>
<circle cx="555.5" cy="109.5" r="2.5" fill="white" fill-opacity="0.38"/>
<circle cx="555.5" cy="123.5" r="2.5" fill="white" fill-opacity="0.38"/>
<circle cx="536.5" cy="9.5" r="2.5" fill="white" fill-opacity="0.38"/>
<circle cx="536.5" cy="20.5" r="2.5" fill="white" fill-opacity="0.38"/>
<circle cx="536.5" cy="31.5" r="2.5" fill="white" fill-opacity="0.38"/>
<circle cx="536.5" cy="42.5" r="2.5" fill="white" fill-opacity="0.38"/>
<circle cx="536.5" cy="56.5" r="2.5" fill="white" fill-opacity="0.38"/>
<circle cx="536.5" cy="67.5" r="2.5" fill="white" fill-opacity="0.38"/>
<circle cx="538.5" cy="81.5" r="2.5" fill="white" fill-opacity="0.38"/>
<circle cx="539.5" cy="95.5" r="2.5" fill="white" fill-opacity="0.38"/>
<circle cx="538.5" cy="109.5" r="2.5" fill="white" fill-opacity="0.38"/>
<circle cx="538.5" cy="123.5" r="2.5" fill="white" fill-opacity="0.38"/>
<circle cx="11.5" cy="633.5" r="2.5" fill="white" fill-opacity="0.38"/>
<circle cx="11.5" cy="644.5" r="2.5" fill="white" fill-opacity="0.38"/>
<circle cx="11.5" cy="655.5" r="2.5" fill="white" fill-opacity="0.38"/>
<circle cx="11.5" cy="666.5" r="2.5" fill="white" fill-opacity="0.38"/>
<circle cx="11.5" cy="680.5" r="2.5" fill="white" fill-opacity="0.38"/>
<circle cx="11.5" cy="691.5" r="2.5" fill="white" fill-opacity="0.38"/>
<circle cx="13.5" cy="705.5" r="2.5" fill="white" fill-opacity="0.38"/>
<circle cx="14.5" cy="719.5" r="2.5" fill="white" fill-opacity="0.38"/>
<circle cx="13.5" cy="733.5" r="2.5" fill="white" fill-opacity="0.38"/>
<circle cx="13.5" cy="747.5" r="2.5" fill="white" fill-opacity="0.38"/>
<circle cx="45.5" cy="633.5" r="2.5" fill="white" fill-opacity="0.38"/>
<circle cx="45.5" cy="644.5" r="2.5" fill="white" fill-opacity="0.38"/>
<circle cx="45.5" cy="655.5" r="2.5" fill="white" fill-opacity="0.38"/>
<circle cx="45.5" cy="666.5" r="2.5" fill="white" fill-opacity="0.38"/>
<circle cx="45.5" cy="680.5" r="2.5" fill="white" fill-opacity="0.38"/>
<circle cx="45.5" cy="691.5" r="2.5" fill="white" fill-opacity="0.38"/>
<circle cx="47.5" cy="705.5" r="2.5" fill="white" fill-opacity="0.38"/>
<circle cx="48.5" cy="719.5" r="2.5" fill="white" fill-opacity="0.38"/>
<circle cx="47.5" cy="733.5" r="2.5" fill="white" fill-opacity="0.38"/>
<circle cx="47.5" cy="747.5" r="2.5" fill="white" fill-opacity="0.38"/>
<circle cx="147.5" cy="633.5" r="2.5" fill="white" fill-opacity="0.38"/>
<circle cx="147.5" cy="644.5" r="2.5" fill="white" fill-opacity="0.38"/>
<circle cx="147.5" cy="655.5" r="2.5" fill="white" fill-opacity="0.38"/>
<circle cx="147.5" cy="666.5" r="2.5" fill="white" fill-opacity="0.38"/>
<circle cx="147.5" cy="680.5" r="2.5" fill="white" fill-opacity="0.38"/>
<circle cx="147.5" cy="691.5" r="2.5" fill="white" fill-opacity="0.38"/>
<circle cx="149.5" cy="705.5" r="2.5" fill="white" fill-opacity="0.38"/>
<circle cx="150.5" cy="719.5" r="2.5" fill="white" fill-opacity="0.38"/>
<circle cx="149.5" cy="733.5" r="2.5" fill="white" fill-opacity="0.38"/>
<circle cx="149.5" cy="747.5" r="2.5" fill="white" fill-opacity="0.38"/>
<circle cx="96.5" cy="633.5" r="2.5" fill="white" fill-opacity="0.38"/>
<circle cx="96.5" cy="644.5" r="2.5" fill="white" fill-opacity="0.38"/>
<circle cx="96.5" cy="655.5" r="2.5" fill="white" fill-opacity="0.38"/>
<circle cx="96.5" cy="666.5" r="2.5" fill="white" fill-opacity="0.38"/>
<circle cx="96.5" cy="680.5" r="2.5" fill="white" fill-opacity="0.38"/>
<circle cx="96.5" cy="691.5" r="2.5" fill="white" fill-opacity="0.38"/>
<circle cx="98.5" cy="705.5" r="2.5" fill="white" fill-opacity="0.38"/>
<circle cx="99.5" cy="719.5" r="2.5" fill="white" fill-opacity="0.38"/>
<circle cx="98.5" cy="733.5" r="2.5" fill="white" fill-opacity="0.38"/>
<circle cx="98.5" cy="747.5" r="2.5" fill="white" fill-opacity="0.38"/>
<circle cx="79.5" cy="633.5" r="2.5" fill="white" fill-opacity="0.38"/>
<circle cx="79.5" cy="644.5" r="2.5" fill="white" fill-opacity="0.38"/>
<circle cx="79.5" cy="655.5" r="2.5" fill="white" fill-opacity="0.38"/>
<circle cx="79.5" cy="666.5" r="2.5" fill="white" fill-opacity="0.38"/>
<circle cx="79.5" cy="680.5" r="2.5" fill="white" fill-opacity="0.38"/>
<circle cx="79.5" cy="691.5" r="2.5" fill="white" fill-opacity="0.38"/>
<circle cx="81.5" cy="705.5" r="2.5" fill="white" fill-opacity="0.38"/>
<circle cx="82.5" cy="719.5" r="2.5" fill="white" fill-opacity="0.38"/>
<circle cx="81.5" cy="733.5" r="2.5" fill="white" fill-opacity="0.38"/>
<circle cx="81.5" cy="747.5" r="2.5" fill="white" fill-opacity="0.38"/>
<circle cx="28.5" cy="633.5" r="2.5" fill="white" fill-opacity="0.38"/>
<circle cx="28.5" cy="644.5" r="2.5" fill="white" fill-opacity="0.38"/>
<circle cx="28.5" cy="655.5" r="2.5" fill="white" fill-opacity="0.38"/>
<circle cx="28.5" cy="666.5" r="2.5" fill="white" fill-opacity="0.38"/>
<circle cx="28.5" cy="680.5" r="2.5" fill="white" fill-opacity="0.38"/>
<circle cx="28.5" cy="691.5" r="2.5" fill="white" fill-opacity="0.38"/>
<circle cx="30.5" cy="705.5" r="2.5" fill="white" fill-opacity="0.38"/>
<circle cx="31.5" cy="719.5" r="2.5" fill="white" fill-opacity="0.38"/>
<circle cx="30.5" cy="733.5" r="2.5" fill="white" fill-opacity="0.38"/>
<circle cx="30.5" cy="747.5" r="2.5" fill="white" fill-opacity="0.38"/>
<circle cx="62.5" cy="633.5" r="2.5" fill="white" fill-opacity="0.38"/>
<circle cx="62.5" cy="644.5" r="2.5" fill="white" fill-opacity="0.38"/>
<circle cx="62.5" cy="655.5" r="2.5" fill="white" fill-opacity="0.38"/>
<circle cx="62.5" cy="666.5" r="2.5" fill="white" fill-opacity="0.38"/>
<circle cx="62.5" cy="680.5" r="2.5" fill="white" fill-opacity="0.38"/>
<circle cx="62.5" cy="691.5" r="2.5" fill="white" fill-opacity="0.38"/>
<circle cx="64.5" cy="705.5" r="2.5" fill="white" fill-opacity="0.38"/>
<circle cx="65.5" cy="719.5" r="2.5" fill="white" fill-opacity="0.38"/>
<circle cx="64.5" cy="733.5" r="2.5" fill="white" fill-opacity="0.38"/>
<circle cx="64.5" cy="747.5" r="2.5" fill="white" fill-opacity="0.38"/>
<circle cx="130.5" cy="633.5" r="2.5" fill="white" fill-opacity="0.38"/>
<circle cx="130.5" cy="644.5" r="2.5" fill="white" fill-opacity="0.38"/>
<circle cx="130.5" cy="655.5" r="2.5" fill="white" fill-opacity="0.38"/>
<circle cx="130.5" cy="666.5" r="2.5" fill="white" fill-opacity="0.38"/>
<circle cx="130.5" cy="680.5" r="2.5" fill="white" fill-opacity="0.38"/>
<circle cx="130.5" cy="691.5" r="2.5" fill="white" fill-opacity="0.38"/>
<circle cx="132.5" cy="705.5" r="2.5" fill="white" fill-opacity="0.38"/>
<circle cx="133.5" cy="719.5" r="2.5" fill="white" fill-opacity="0.38"/>
<circle cx="132.5" cy="733.5" r="2.5" fill="white" fill-opacity="0.38"/>
<circle cx="132.5" cy="747.5" r="2.5" fill="white" fill-opacity="0.38"/>
<circle cx="113.5" cy="633.5" r="2.5" fill="white" fill-opacity="0.38"/>
<circle cx="113.5" cy="644.5" r="2.5" fill="white" fill-opacity="0.38"/>
<circle cx="113.5" cy="655.5" r="2.5" fill="white" fill-opacity="0.38"/>
<circle cx="113.5" cy="666.5" r="2.5" fill="white" fill-opacity="0.38"/>
<circle cx="113.5" cy="680.5" r="2.5" fill="white" fill-opacity="0.38"/>
<circle cx="113.5" cy="691.5" r="2.5" fill="white" fill-opacity="0.38"/>
<circle cx="115.5" cy="705.5" r="2.5" fill="white" fill-opacity="0.38"/>
<circle cx="116.5" cy="719.5" r="2.5" fill="white" fill-opacity="0.38"/>
<circle cx="115.5" cy="733.5" r="2.5" fill="white" fill-opacity="0.38"/>
<circle cx="115.5" cy="747.5" r="2.5" fill="white" fill-opacity="0.38"/>
</svg>
