<svg width="132" height="123" viewBox="0 0 132 123" fill="none" xmlns="http://www.w3.org/2000/svg">
<g id="local_shipping_24px">
<path id="icon/maps/local_shipping_24px" fill-rule="evenodd" clip-rule="evenodd" d="M110 41H93.5V20.5H16.5C10.45 20.5 5.5 25.1125 5.5 30.75V87.125H16.5C16.5 95.6325 23.87 102.5 33 102.5C42.13 102.5 49.5 95.6325 49.5 87.125H82.5C82.5 95.6325 89.87 102.5 99 102.5C108.13 102.5 115.5 95.6325 115.5 87.125H126.5V61.5L110 41ZM107.25 48.6875L118.03 61.5H93.4998V48.6875H107.25ZM27.4998 87.125C27.4998 89.9437 29.9748 92.25 32.9998 92.25C36.0248 92.25 38.4998 89.9437 38.4998 87.125C38.4998 84.3062 36.0248 82 32.9998 82C29.9748 82 27.4998 84.3062 27.4998 87.125ZM45.2102 76.875C42.1852 73.7487 37.8952 71.75 33.0002 71.75C28.1052 71.75 23.8152 73.7487 20.7902 76.875H16.5002V30.75H82.5002V76.875H45.2102ZM93.4998 87.125C93.4998 89.9437 95.9748 92.25 98.9998 92.25C102.025 92.25 104.5 89.9437 104.5 87.125C104.5 84.3062 102.025 82 98.9998 82C95.9748 82 93.4998 84.3062 93.4998 87.125Z" fill="#9B51E0"/>
</g>
</svg>
