<svg width="22" height="25" viewBox="0 0 22 25" fill="none" xmlns="http://www.w3.org/2000/svg">
<path d="M20.7778 17.3611C19.25 17.3611 17.7833 17.0833 16.4144 16.5694C16.2922 16.5278 16.1578 16.5 16.0356 16.5C15.7178 16.5 15.4122 16.6389 15.1678 16.9028L12.4789 19.9583C9.02 17.9583 6.18444 14.75 4.42444 10.8194L7.11333 7.75C7.45556 7.375 7.55333 6.83333 7.41889 6.34722C6.96667 4.79167 6.72222 3.125 6.72222 1.38889C6.72222 0.625 6.17222 0 5.5 0H1.22222C0.55 0 0 0.625 0 1.38889C0 14.4306 9.30111 25 20.7778 25C21.45 25 22 24.375 22 23.6111V18.75C22 17.9861 21.45 17.3611 20.7778 17.3611Z" fill="#DADADA"/>
</svg>
